<svg id="Layer_1" data-name="Layer 1" xmlns="http://www.w3.org/2000/svg" viewBox="0 0 510.86 509.07"><defs><style>.cls-1{fill:#f89a48;}</style></defs><title>icon-print</title><path class="cls-1" d="M761,692V845a9.58,9.58,0,0,0-.87,2.15c-2.5,17.53-11.9,30-27.68,37.76-9.48,4.68-19.68,4.35-29.85,4.28-8.44-.05-16.88,0-25.87,0v83.88h-343v-83.9c-12.17,0-23.81.11-35.46,0-27.15-.32-48-21.23-48.06-48.4q-.15-72.72,0-145.44c0-10.11,4.16-18.4,11.57-25.05a49,49,0,0,1,27.86-12.31c6.22-.7,12.51-.81,19.23-1.21,0-12.17,0-24.13,0-36.09.06-14.1,7.89-25.55,21.14-30.15,3.44-1.19,4.08-2.8,4.07-6Q333.92,524.23,334,464H571a24.1,24.1,0,0,0,2.29,3.09C604,497.39,634.47,528,665.73,557.71c8.31,7.91,13.09,15.72,11.11,27.11-.54,3.12.76,4.5,3.93,5.59,13,4.47,21.2,16.38,21.23,30.19,0,10.67,0,21.33,0,32,0,1.44.16,2.88.27,4.57h9.36C737.33,657.14,752.91,668.14,761,692ZM644.55,812.36H366.28V942.15H644.55ZM366.32,497.25V657.88H644.44V590.37h-99V497.25Zm354.18,235H290.39c-.08,1.72-.21,3.17-.21,4.63q0,42,0,84c0,6.5-.11,13,0,19.49.15,6.81,3.13,9.61,9.91,9.62q14.75,0,29.49,0c1.42,0,2.84-.19,4.58-.31V780.4H677V850h31.81c9.55,0,11.7-2.16,11.7-11.76q0-49,0-98C720.49,737.78,720.49,735.29,720.49,732.27ZM570,565.74H638L570,498.95Z" transform="translate(-250.14 -464)"/><rect class="cls-1" x="146" y="376.25" width="218.86" height="10"/><rect class="cls-1" x="146" y="406.58" width="218.86" height="10"/><rect class="cls-1" x="146" y="440.42" width="218.86" height="10"/></svg>