<?xml version="1.0" encoding="utf-8"?>
<!-- Generator: Adobe Illustrator 21.1.0, SVG Export Plug-In . SVG Version: 6.00 Build 0)  -->
<svg version="1.1" id="Layer_1" xmlns="http://www.w3.org/2000/svg" xmlns:xlink="http://www.w3.org/1999/xlink" x="0px" y="0px"
	 viewBox="0 0 81 75" style="enable-background:new 0 0 81 75;" xml:space="preserve">
<style type="text/css">
	.st0{fill:#7BB6C6;}
</style>
<title>icon-clipboard</title>
<path class="st0" d="M55.9,40.1H36v3.1h20L55.9,40.1L55.9,40.1z M50.9,9.9h-3.8v-1c0-3.7-3-6.6-6.6-6.6c-3.7,0-6.6,3-6.6,6.6V10
	h-3.8v9h20.8L50.9,9.9z M42.8,9.9h-4.6v-1c0-1.3,1-2.3,2.3-2.3s2.3,1,2.3,2.3l0,0V9.9z M36,57h20v-3.1H36V57z M25.1,59.3h7.7v-7.7
	h-7.7C25.1,51.6,25.1,59.3,25.1,59.3z M32.8,24h-7.7v7.7h7.7V24z M55.9,10.7h-3.2V15h3.2c2.9,0,5.2,2.4,5.2,5.2v40.9
	c0,2.9-2.4,5.2-5.2,5.2H25.1c-2.9,0-5.2-2.4-5.2-5.2V20.2c0-2.9,2.4-5.2,5.2-5.2h3.2v-4.3h-3.2c-5.3,0-9.6,4.3-9.6,9.6v40.9
	c0,5.3,4.3,9.6,9.6,9.6H56c5.3,0,9.6-4.3,9.6-9.6v-41C65.5,14.9,61.2,10.7,55.9,10.7z M55.9,26.3H36v3.1h20L55.9,26.3L55.9,26.3z
	 M32.8,37.8h-7.7v7.7h7.7V37.8z"/>
</svg>
