<?xml version="1.0" encoding="utf-8"?>
<!-- Generator: Adobe Illustrator 21.1.0, SVG Export Plug-In . SVG Version: 6.00 Build 0)  -->
<svg version="1.1" id="Isolation_Mode" xmlns="http://www.w3.org/2000/svg" xmlns:xlink="http://www.w3.org/1999/xlink" x="0px"
	 y="0px" viewBox="0 0 48 47.4" style="enable-background:new 0 0 48 47.4;" xml:space="preserve">
<style type="text/css">
	.st0{fill:none;stroke:#E08A40;stroke-miterlimit:10;}
	.st1{fill:#E08A40;}
</style>
<title>icon-instagram-orange</title>
<circle class="st0" cx="-34.1" cy="23.7" r="23.2"/>
<path class="st1" d="M-30.2,20.8h-2.6V19c-0.1-0.4,0.2-0.7,0.6-0.8c0,0,0.1,0,0.1,0h1.8v-2.9h-2.6c-1.8-0.1-3.3,1.2-3.5,3
	c0,0.2,0,0.3,0,0.5v1.9H-38v2.9h1.7V32h3.5v-8.3h2.3L-30.2,20.8z"/>
<circle class="st0" cx="23.9" cy="23.7" r="23.2"/>
<path class="st1" d="M28.7,15.9h-9.6c-1.7,0-3,1.3-3,3v9.6c0,1.7,1.3,3,3,3h9.6c1.7,0,3-1.3,3-3v-9.6C31.7,17.2,30.4,15.9,28.7,15.9
	z M29.6,17.7h0.3v2.6h-2.6v-2.6H29.6z M21.7,22.1c0.9-1.2,2.6-1.5,3.8-0.6c1.2,0.9,1.5,2.6,0.6,3.8c-0.9,1.2-2.6,1.5-3.8,0.6
	c-0.7-0.5-1.1-1.3-1.1-2.2C21.2,23.1,21.4,22.5,21.7,22.1L21.7,22.1z M30.2,28.5c0,0.8-0.7,1.5-1.5,1.5h-9.6c-0.8,0-1.5-0.7-1.5-1.5
	v-6.4H20c-0.9,2.2,0.2,4.7,2.3,5.6c2.2,0.9,4.7-0.2,5.6-2.3c0.4-1,0.4-2.2,0-3.2h2.3V28.5z"/>
<circle class="st0" cx="82.3" cy="23.7" r="23.2"/>
<path class="st1" d="M89.8,20c0-0.1,0-0.1,0-0.2v-0.1c-0.2-0.6-0.8-1-1.4-1h0.1c-4.1-0.6-8.2-0.6-12.3,0h0.1c-0.6,0-1.2,0.4-1.4,1
	v0.1c0,0.1,0,0.1,0,0.2c-0.4,2.4-0.4,4.9,0,7.4c0,0.1,0,0.1,0,0.2v0.1c0.2,0.6,0.8,1,1.4,1h-0.1c4.1,0.6,8.2,0.6,12.3,0h-0.1
	c0.6,0,1.2-0.4,1.4-1v-0.1c0-0.1,0-0.1,0-0.2C90.2,24.9,90.2,22.5,89.8,20z M84.6,24l-3.1,2.3c-0.1,0-0.1,0.1-0.2,0.1
	c-0.1,0-0.1,0-0.2,0c-0.1-0.1-0.2-0.2-0.2-0.3v-4.6c0-0.2,0.2-0.4,0.4-0.4c0.1,0,0.2,0,0.2,0.1l3.1,2.3C84.8,23.6,84.8,23.8,84.6,24
	C84.7,24,84.6,24,84.6,24L84.6,24z"/>
</svg>
