<svg id="Layer_1" data-name="Layer 1" xmlns="http://www.w3.org/2000/svg" viewBox="0 0 113.62 101.04"><defs><style>.cls-1{fill:#7bb6c6;}</style></defs><title>icon-leaders</title><path class="cls-1" d="M353.65,651.72a60.56,60.56,0,0,0,9.42-5.7s-5.14,1-18-6.75c-18.42-11-21.54-4-28.59,5.14a22.43,22.43,0,0,1-6.73,5.68v-5a8.57,8.57,0,1,0-7,0v5a22.41,22.41,0,0,1-6.73-5.68c-7.06-9.15-10.18-16.19-28.59-5.14-12.85,7.71-18,6.75-18,6.75a60.57,60.57,0,0,0,9.42,5.7,107.34,107.34,0,0,0,13.26-5l1.34,2.68a89.74,89.74,0,0,1-10.56,4.12c1.67.7,3.46,1.36,5.35,2a110.26,110.26,0,0,0,13.7-5.1l1.34,2.68a84.46,84.46,0,0,1-9.67,3.82c8.78,1.84,19,1.66,29.12-3.75v26.62c-6.28-1.75-13.3-5.14-13.3-8.4a3.6,3.6,0,0,1,.91-2.84c1.1-.92,3.28-.8,4-.68l.63-3.44.66-3.44c-.59-.11-5.87-1-9.69,2.16-1.58,1.31-3.46,3.79-3.46,8.24,0,5.83,5.11,9.75,10.44,12.27a13.1,13.1,0,0,0-1.36,1.06,12.2,12.2,0,0,0-3.94,9.32,12.06,12.06,0,0,0,3.9,9.19,13.7,13.7,0,0,0,2.28,1.66,10,10,0,0,0-2.91,7.32,9.79,9.79,0,0,0,5.24,8.94,11.1,11.1,0,0,0-4.06,8.54h7c0-2.07,1.72-3.58,3.71-4.63v4.63h7v-4.62c2,1,3.71,2.55,3.71,4.63h7a11.1,11.1,0,0,0-4.06-8.54,9.79,9.79,0,0,0,5.24-8.94,10,10,0,0,0-2.91-7.32,13.69,13.69,0,0,0,2.28-1.66,12.06,12.06,0,0,0,3.9-9.19,12.2,12.2,0,0,0-3.94-9.32,13.11,13.11,0,0,0-1.36-1.06c5.33-2.51,10.44-6.44,10.44-12.27,0-4.45-1.88-6.94-3.46-8.24-3.82-3.16-9.1-2.27-9.69-2.16l1.29,6.88c.68-.12,2.86-.25,4,.68a3.6,3.6,0,0,1,.91,2.84c0,3.27-7,6.65-13.29,8.4V653.18c10.09,5.42,20.34,5.6,29.12,3.75a84.47,84.47,0,0,1-9.67-3.82l1.34-2.68a110.26,110.26,0,0,0,13.71,5.1c1.89-.59,3.68-1.26,5.35-2A89.74,89.74,0,0,1,339,649.45l1.34-2.68A107.34,107.34,0,0,0,353.65,651.72ZM291,663a1.25,1.25,0,1,1-1.25,1.25A1.25,1.25,0,0,1,291,663Zm11.75,52.8-2-.31v.07a5.17,5.17,0,0,1-2-1.11,2.83,2.83,0,0,1-.82-2.24c0-2.83,2.94-3.92,4.89-4.32Zm0-15.3c-2.38-.32-5-1-6.54-2.46a5,5,0,0,1-1.61-4,5.19,5.19,0,0,1,1.63-4.13c1.6-1.46,4.18-2.13,6.52-2.41Zm18.75-35a1.25,1.25,0,1,1,1.25-1.25A1.25,1.25,0,0,1,321.51,665.52Zm-7.68,49a5.17,5.17,0,0,1-2,1.11v-.07l-2,.31v-7.92c2,.41,4.88,1.5,4.88,4.32A2.83,2.83,0,0,1,313.83,714.47Zm2.44-24.55a5.19,5.19,0,0,1,1.64,4.14,5.05,5.05,0,0,1-1.61,4c-1.59,1.46-4.15,2.16-6.54,2.47v-13C312.09,687.8,314.67,688.47,316.27,689.92Z" transform="translate(-249.45 -628.68)"/></svg>