<?xml version="1.0" encoding="utf-8"?>
<!-- Generator: Adobe Illustrator 21.1.0, SVG Export Plug-In . SVG Version: 6.00 Build 0)  -->
<svg version="1.1" id="Layer_1" xmlns="http://www.w3.org/2000/svg" xmlns:xlink="http://www.w3.org/1999/xlink" x="0px" y="0px"
	 viewBox="0 0 93.6 73.4" style="enable-background:new 0 0 93.6 73.4;" xml:space="preserve">
<style type="text/css">
	.st0{fill:#7BB6C6;}
</style>
<title>icon-stetho</title>
<path class="st0" d="M73.4,58.1v-2.9c0-5.9-4.8-10.6-10.6-10.6h-0.7c-5.9,0-10.6,4.8-10.6,10.6v7.5c0,3.2-2.6,5.8-5.8,5.8H45
	c-3.2,0-5.8-2.6-5.8-5.8V48.6h2v-2.1c12-1.1,14.4-15.8,16.2-26.5c0.1-0.9,0.3-1.7,0.4-2.5c0.8-4.8,0.2-8.6-1.9-11.1
	c-1.4-1.8-3.5-2.8-5.7-3h-3.7c-1.3-1.4-3.4-1.4-4.8-0.1c-1.4,1.3-1.4,3.4-0.1,4.8c1.3,1.4,3.4,1.4,4.8,0.2h3.7
	c0.8,0.1,1.6,0.6,2.2,1.2c1.1,1.4,1.4,3.9,0.9,7.3c-0.1,0.8-0.3,1.7-0.4,2.5c-2,12.1-4.2,21.4-11.5,22.5v-1.9h-9v2
	c-7.7-0.8-9.9-10.2-11.9-22.5c-0.1-0.9-0.3-1.7-0.4-2.5c-0.6-3.3-0.3-5.8,0.8-7.2c0.5-0.7,1.3-1.2,2.2-1.3h3.7
	c1.4,1.3,3.5,1.2,4.8-0.2c1.3-1.4,1.2-3.5-0.2-4.8c-1.4-1.2-3.5-1.2-4.7,0.2h-3.7c-2.2,0.2-4.3,1.3-5.7,3c-2.1,2.6-2.7,6.3-1.9,11.1
	c0.1,0.8,0.3,1.6,0.4,2.5c1.8,10.9,4.3,25.7,16.6,26.5v2.1h2.2v14.1c0,5.9,4.8,10.6,10.6,10.6h0.7c5.9,0,10.6-4.8,10.6-10.6v-7.5
	c0-3.2,2.6-5.8,5.8-5.8h0.7c3.2,0,5.8,2.6,5.8,5.8v2.9c-4.1,1.4-6.3,5.8-4.9,9.8c1.4,4.1,5.8,6.3,9.8,4.9c4.1-1.4,6.3-5.8,4.9-9.8
	C77.7,60.7,75.8,58.8,73.4,58.1L73.4,58.1z M71.1,68.1c-1.4,0-2.6-1.1-2.6-2.6c0-0.8,0.4-1.6,1-2.1h3.1c1.1,0.8,1.4,2.4,0.5,3.6
	C72.7,67.7,71.9,68.1,71.1,68.1L71.1,68.1z"/>
</svg>
