<svg id="Layer_1" data-name="Layer 1" xmlns="http://www.w3.org/2000/svg" viewBox="0 0 45.04 50"><defs><style>.cls-1{fill:#7bb6c6;}</style></defs><title>icon-insurance</title><path class="cls-1" d="M61.86,46.94c-7.76.85-14.92-5.62-16.56-8.88a.39.39,0,0,0-.7,0C43,41.32,35.81,47.79,28,46.94a.39.39,0,0,0-.43.35C26.2,61.31,36.19,71.41,44.8,75a.4.4,0,0,0,.31,0c8.61-3.56,18.6-13.66,17.19-27.69A.39.39,0,0,0,61.86,46.94ZM55.4,63.5a27.25,27.25,0,0,1-10.27,8.64.4.4,0,0,1-.34,0A27.25,27.25,0,0,1,34.51,63.5a23.27,23.27,0,0,1-4.45-13.55.39.39,0,0,1,.37-.39,21.38,21.38,0,0,0,11.47-4.7,25.42,25.42,0,0,0,2.77-2.55.39.39,0,0,1,.57,0A25.41,25.41,0,0,0,48,44.86a21.38,21.38,0,0,0,11.48,4.7.39.39,0,0,1,.37.39A23.27,23.27,0,0,1,55.4,63.5Z" transform="translate(-27.48 -25)"/><path class="cls-1" d="M58.69,28.13h-.11a4,4,0,0,0-7.86,0h-.11a4,4,0,0,0,0,8.07h8.07a4,4,0,1,0,0-8.07Zm-4,3.47a2.47,2.47,0,1,1,2.47-2.47A2.47,2.47,0,0,1,54.65,31.59Z" transform="translate(-27.48 -25)"/><path class="cls-1" d="M71,29.8H63.37a5.2,5.2,0,0,1,.49,1.51h6.31a.84.84,0,0,1,.84.84v39h0a1.51,1.51,0,0,0,1.51-1.51V31.31A1.51,1.51,0,0,0,71,29.8Z" transform="translate(-27.48 -25)"/><path class="cls-1" d="M45.94,29.8H43.51A1.51,1.51,0,0,0,42,31.31h3.44A5.2,5.2,0,0,1,45.94,29.8Z" transform="translate(-27.48 -25)"/><path class="cls-1" d="M68.4,32.52H63.92A5.19,5.19,0,0,1,63.59,34h4a.84.84,0,0,1,.84.84V71.48a.84.84,0,0,1-.84.84H51.72c-.73.54-1.48,1-2.24,1.51H68.4a1.51,1.51,0,0,0,1.51-1.51V34A1.51,1.51,0,0,0,68.4,32.52Z" transform="translate(-27.48 -25)"/><path class="cls-1" d="M40.91,41.06v-6.2a.84.84,0,0,1,.84-.84h4a5.2,5.2,0,0,1-.33-1.51H40.9A1.51,1.51,0,0,0,39.4,34v8.29C39.94,41.9,40.44,41.48,40.91,41.06Z" transform="translate(-27.48 -25)"/><path class="cls-1" d="M56.78,45.51h8.59a.49.49,0,0,0,.49-.49h0a.49.49,0,0,0-.49-.49H54.18A16.88,16.88,0,0,0,56.78,45.51Z" transform="translate(-27.48 -25)"/><path class="cls-1" d="M47.47,39.47c.27.31.56.64.9,1h17a.49.49,0,0,0,.49-.49h0a.49.49,0,0,0-.49-.49Z" transform="translate(-27.48 -25)"/><path class="cls-1" d="M63.4,50.57h1.81a.49.49,0,0,0,.49-.49h0a.49.49,0,0,0-.49-.49H63.4Q63.41,50.09,63.4,50.57Z" transform="translate(-27.48 -25)"/><path class="cls-1" d="M58.2,65.76h7a.49.49,0,0,0,.49-.49h0a.49.49,0,0,0-.49-.49H58.88Q58.55,65.28,58.2,65.76Z" transform="translate(-27.48 -25)"/><path class="cls-1" d="M61.13,60.7h4.08a.49.49,0,0,0,.49-.49h0a.49.49,0,0,0-.49-.49H61.54Q61.34,60.22,61.13,60.7Z" transform="translate(-27.48 -25)"/><path class="cls-1" d="M62.8,55.64h2.41a.49.49,0,0,0,.49-.49h0a.49.49,0,0,0-.49-.49H63C62.93,55,62.87,55.31,62.8,55.64Z" transform="translate(-27.48 -25)"/><polygon class="cls-1" points="20.26 25.15 14.69 25.15 14.69 29.33 10.51 29.33 10.51 34.9 14.69 34.9 14.69 39.08 20.26 39.08 20.26 34.9 24.44 34.9 24.44 29.33 20.26 29.33 20.26 25.15"/></svg>