<?xml version="1.0" encoding="utf-8"?>
<!-- Generator: Adobe Illustrator 21.1.0, SVG Export Plug-In . SVG Version: 6.00 Build 0)  -->
<svg version="1.1" id="Isolation_Mode" xmlns="http://www.w3.org/2000/svg" xmlns:xlink="http://www.w3.org/1999/xlink" x="0px"
	 y="0px" viewBox="0 0 47.5 47.4" style="enable-background:new 0 0 47.5 47.4;" xml:space="preserve">
<style type="text/css">
	.st0{fill:none;stroke:#929497;stroke-miterlimit:10;}
	.st1{fill:#58595B;}
</style>
<title>icon-facebook-grey</title>
<circle class="st0" cx="23.7" cy="23.7" r="23.2"/>
<path class="st1" d="M27.6,20.8h-2.6V19c-0.1-0.4,0.2-0.7,0.6-0.8c0,0,0.1,0,0.1,0h1.8v-2.9h-2.6c-1.8-0.1-3.3,1.2-3.5,3
	c0,0.2,0,0.3,0,0.5v1.9h-1.6v2.9h1.7V32h3.5v-8.3h2.3L27.6,20.8z"/>
<circle class="st0" cx="81.7" cy="23.7" r="23.2"/>
<path class="st1" d="M86.5,15.9h-9.6c-1.7,0-3,1.3-3,3v9.6c0,1.7,1.3,3,3,3h9.6c1.7,0,3-1.3,3-3v-9.6C89.5,17.2,88.1,15.9,86.5,15.9
	z M87.3,17.7h0.3v2.6h-2.6v-2.6H87.3z M79.5,22.1c0.9-1.2,2.6-1.5,3.8-0.6c1.2,0.9,1.5,2.6,0.6,3.8c-0.9,1.2-2.6,1.5-3.8,0.6
	c-0.7-0.5-1.1-1.3-1.1-2.2C79,23.1,79.1,22.5,79.5,22.1L79.5,22.1z M88,28.5c0,0.8-0.7,1.5-1.5,1.5h-9.6c-0.8,0-1.5-0.7-1.5-1.5
	v-6.4h2.3c-0.9,2.2,0.2,4.7,2.3,5.6c2.2,0.9,4.7-0.2,5.6-2.3c0.4-1,0.4-2.2,0-3.2H88V28.5z"/>
<circle class="st0" cx="140.1" cy="23.7" r="23.2"/>
<path class="st1" d="M147.6,20c0-0.1,0-0.1,0-0.2v-0.1c-0.2-0.6-0.8-1-1.4-1h0.1c-4.1-0.6-8.2-0.6-12.3,0h0.1c-0.6,0-1.2,0.4-1.4,1
	v0.1c0,0.1,0,0.1,0,0.2c-0.4,2.4-0.4,4.9,0,7.4c0,0.1,0,0.1,0,0.2v0.1c0.2,0.6,0.8,1,1.4,1H134c4.1,0.6,8.2,0.6,12.3,0h-0.1
	c0.6,0,1.2-0.4,1.4-1v-0.1c0-0.1,0-0.1,0-0.2C147.9,24.9,147.9,22.5,147.6,20z M142.4,24l-3.1,2.3c-0.1,0-0.1,0.1-0.2,0.1
	c-0.1,0-0.1,0-0.2,0c-0.1-0.1-0.2-0.2-0.2-0.3v-4.6c0-0.2,0.2-0.4,0.4-0.4c0.1,0,0.2,0,0.2,0.1l3.1,2.3
	C142.5,23.6,142.6,23.8,142.4,24C142.4,24,142.4,24,142.4,24L142.4,24z"/>
</svg>
