<?xml version="1.0" encoding="utf-8"?>
<!-- Generator: Adobe Illustrator 21.1.0, SVG Export Plug-In . SVG Version: 6.00 Build 0)  -->
<svg version="1.1" id="Isolation_Mode" xmlns="http://www.w3.org/2000/svg" xmlns:xlink="http://www.w3.org/1999/xlink" x="0px"
	 y="0px" viewBox="0 0 48.5 47.4" style="enable-background:new 0 0 48.5 47.4;" xml:space="preserve">
<style type="text/css">
	.st0{fill:none;stroke:#929497;stroke-miterlimit:10;}
	.st1{fill:#58595B;}
</style>
<title>icon-instagram-grey</title>
<circle class="st0" cx="-33.8" cy="23.7" r="23.2"/>
<path class="st1" d="M-29.9,20.8h-2.6V19c-0.1-0.4,0.2-0.7,0.6-0.8c0,0,0.1,0,0.1,0h1.8v-2.9h-2.6c-1.8-0.1-3.3,1.2-3.5,3
	c0,0.2,0,0.3,0,0.5v1.9h-1.6v2.9h1.7V32h3.5v-8.3h2.3L-29.9,20.8z"/>
<circle class="st0" cx="24.2" cy="23.7" r="23.2"/>
<path class="st1" d="M29,15.9h-9.6c-1.7,0-3,1.3-3,3v9.6c0,1.7,1.3,3,3,3H29c1.7,0,3-1.3,3-3v-9.6C32,17.2,30.6,15.9,29,15.9z
	 M29.8,17.7h0.3v2.6h-2.6v-2.6H29.8z M22,22.1c0.9-1.2,2.6-1.5,3.8-0.6c1.2,0.9,1.5,2.6,0.6,3.8c-0.9,1.2-2.6,1.5-3.8,0.6
	c-0.7-0.5-1.1-1.3-1.1-2.2C21.5,23.1,21.6,22.5,22,22.1L22,22.1z M30.5,28.5c0,0.8-0.7,1.5-1.5,1.5h-9.6c-0.8,0-1.5-0.7-1.5-1.5
	v-6.4h2.3c-0.9,2.2,0.2,4.7,2.3,5.6c2.2,0.9,4.7-0.2,5.6-2.3c0.4-1,0.4-2.2,0-3.2h2.3V28.5z"/>
<circle class="st0" cx="82.6" cy="23.7" r="23.2"/>
<path class="st1" d="M90.1,20c0-0.1,0-0.1,0-0.2v-0.1c-0.2-0.6-0.8-1-1.4-1h0.1c-4.1-0.6-8.2-0.6-12.3,0h0.1c-0.6,0-1.2,0.4-1.4,1
	v0.1c0,0.1,0,0.1,0,0.2c-0.4,2.4-0.4,4.9,0,7.4c0,0.1,0,0.1,0,0.2v0.1c0.2,0.6,0.8,1,1.4,1h-0.1c4.1,0.6,8.2,0.6,12.3,0h-0.1
	c0.6,0,1.2-0.4,1.4-1v-0.1c0-0.1,0-0.1,0-0.2C90.4,24.9,90.4,22.5,90.1,20z M84.9,24l-3.1,2.3c-0.1,0-0.1,0.1-0.2,0.1
	c-0.1,0-0.1,0-0.2,0c-0.1-0.1-0.2-0.2-0.2-0.3v-4.6c0-0.2,0.2-0.4,0.4-0.4c0.1,0,0.2,0,0.2,0.1l3.1,2.3C85,23.6,85.1,23.8,84.9,24
	C84.9,24,84.9,24,84.9,24L84.9,24z"/>
</svg>
