<?xml version="1.0" encoding="utf-8"?>
<!-- Generator: Adobe Illustrator 21.1.0, SVG Export Plug-In . SVG Version: 6.00 Build 0)  -->
<svg version="1.1" id="Layer_1" xmlns="http://www.w3.org/2000/svg" xmlns:xlink="http://www.w3.org/1999/xlink" x="0px" y="0px"
	 viewBox="0 0 1000 1000" style="enable-background:new 0 0 1000 1000;" xml:space="preserve">
<style type="text/css">
	.st0{fill:#E08A40;}
</style>
<g>
	<path class="st0" d="M897.2,10H102.8c-26.3,0-47.6,21.3-47.6,47.6s21.3,47.6,47.6,47.6h794.4c26.3,0,47.6-21.3,47.6-47.6
		S923.5,10,897.2,10z"/>
	<path class="st0" d="M886.1,515.6L534.2,163.7c-8.7-8.9-20.8-14.5-34.2-14.5c-13.6,0-25.9,5.7-34.6,14.9L113.9,515.6l0,0
		c-8.6,8.6-13.9,20.5-13.9,33.7c0,26.4,21.4,47.8,47.8,47.8c13.6,0,25.8-5.7,34.5-14.7l269.3-269.3v629.3l0,0
		c0,26.3,21.3,47.6,47.6,47.6s47.6-21.3,47.6-47.6V311.6l271.6,271.6l0.1-0.1c8.6,8.6,20.6,13.9,33.7,13.9
		c26.4,0,47.8-21.4,47.8-47.8C900,536.2,894.7,524.3,886.1,515.6L886.1,515.6z"/>
</g>
</svg>
