<?xml version="1.0" encoding="utf-8"?>
<!-- Generator: Adobe Illustrator 21.1.0, SVG Export Plug-In . SVG Version: 6.00 Build 0)  -->
<svg version="1.1" id="Isolation_Mode" xmlns="http://www.w3.org/2000/svg" xmlns:xlink="http://www.w3.org/1999/xlink" x="0px"
	 y="0px" viewBox="0 0 158 109.3" style="enable-background:new 0 0 158 109.3;" xml:space="preserve">
<style type="text/css">
	.st0{fill:#7BB6C6;}
</style>
<title>icon-locations</title>
<path class="st0" d="M39.4,4.2c0.7,0.2,1.4,0.3,2,0.5c6.9,1.3,12.1,7,12.9,14c0.4,3.4-0.2,6.8-1.9,9.7c-4.6,8-9.2,15.9-13.8,23.9
	c-0.1,0.2-0.2,0.3-0.4,0.6l-3.4-5.8c-3.6-6.2-7.2-12.3-10.7-18.5c-4.4-7.8-1.7-17.7,6-22.1c1.6-0.9,3.4-1.6,5.3-1.9
	c0.5-0.1,1-0.2,1.5-0.3L39.4,4.2z M38.2,30.9c5.7,0,10.3-4.6,10.3-10.3c0-5.7-4.6-10.3-10.3-10.3c-5.7,0-10.3,4.6-10.3,10.3
	c-0.1,5.6,4.5,10.3,10.1,10.3C38,30.9,38.1,30.9,38.2,30.9L38.2,30.9z"/>
<path class="st0" d="M80.6,4.2c0.7,0.2,1.4,0.3,2,0.5c6.9,1.3,12.1,7,12.9,14c0.4,3.4-0.2,6.8-1.9,9.7c-4.6,7.9-9.2,15.9-13.8,23.9
	c-0.1,0.2-0.2,0.3-0.4,0.6l-3.4-5.8c-3.6-6.2-7.2-12.3-10.7-18.5c-4.4-7.8-1.7-17.7,6-22.1c1.6-0.9,3.4-1.6,5.3-1.9
	c0.5-0.1,1-0.2,1.5-0.3L80.6,4.2z M79.4,30.9c5.7,0,10.3-4.6,10.3-10.3c0-5.7-4.6-10.3-10.3-10.3c-5.7,0-10.3,4.6-10.3,10.3
	c-0.1,5.6,4.5,10.3,10.1,10.3C79.3,30.9,79.4,30.9,79.4,30.9L79.4,30.9z"/>
<path class="st0" d="M121,4.2c0.7,0.2,1.4,0.3,2,0.5c6.9,1.3,12.1,7,12.9,14c0.4,3.4-0.2,6.8-1.9,9.7c-4.6,8-9.2,15.9-13.8,23.9
	c-0.1,0.2-0.2,0.3-0.4,0.6l-3.4-5.8c-3.6-6.2-7.2-12.3-10.7-18.5c-4.4-7.8-1.7-17.7,6-22.1c1.6-0.9,3.4-1.6,5.3-1.9
	c0.5-0.1,1-0.2,1.5-0.3L121,4.2z M119.8,30.9c5.7,0,10.3-4.6,10.3-10.3c0-5.7-4.6-10.3-10.3-10.3c-5.7,0-10.3,4.6-10.3,10.3
	c-0.1,5.6,4.5,10.3,10.1,10.3C119.7,30.9,119.7,30.9,119.8,30.9L119.8,30.9z"/>
<path class="st0" d="M39.4,60.6c0.7,0.2,1.4,0.3,2,0.5c6.9,1.3,12.1,7,12.9,14c0.4,3.4-0.2,6.8-1.9,9.7c-4.6,8-9.2,15.9-13.8,23.9
	c-0.1,0.2-0.2,0.3-0.4,0.6l-3.4-5.8c-3.6-6.2-7.2-12.3-10.7-18.5c-4.4-7.8-1.7-17.7,6-22.1c1.6-0.9,3.4-1.6,5.3-1.9
	c0.5-0.1,1-0.2,1.5-0.3L39.4,60.6z M38.2,87.3c5.7,0,10.3-4.6,10.3-10.3c0-5.7-4.6-10.3-10.3-10.3c-5.7,0-10.3,4.6-10.3,10.3
	c-0.1,5.6,4.4,10.3,10.1,10.3C38,87.3,38.1,87.3,38.2,87.3z"/>
<path class="st0" d="M80.6,60.6c0.7,0.2,1.4,0.3,2,0.5c6.9,1.3,12.1,7,12.9,14c0.4,3.4-0.2,6.8-1.9,9.7c-4.6,8-9.2,15.9-13.8,23.9
	c-0.1,0.2-0.2,0.3-0.4,0.6l-3.4-5.8c-3.6-6.2-7.2-12.3-10.7-18.5c-4.4-7.8-1.7-17.7,6-22.1c1.6-0.9,3.4-1.6,5.3-1.9
	c0.5-0.1,1-0.2,1.5-0.3L80.6,60.6z M79.4,87.3c5.7,0,10.3-4.6,10.3-10.3c0-5.7-4.6-10.3-10.3-10.3c-5.7,0-10.3,4.6-10.3,10.3
	c-0.1,5.6,4.4,10.3,10.1,10.3C79.3,87.3,79.4,87.3,79.4,87.3z"/>
<path class="st0" d="M121,60.6c0.7,0.2,1.4,0.3,2,0.5c6.9,1.3,12.1,7,12.9,14c0.4,3.4-0.2,6.8-1.9,9.7c-4.6,8-9.2,15.9-13.8,23.9
	c-0.1,0.2-0.2,0.3-0.4,0.6l-3.4-5.8c-3.6-6.2-7.2-12.3-10.7-18.5c-4.4-7.8-1.7-17.7,6-22.1c1.6-0.9,3.4-1.6,5.3-1.9
	c0.5-0.1,1-0.2,1.5-0.3L121,60.6z M119.8,87.3c5.7,0,10.3-4.6,10.3-10.3c0-5.7-4.6-10.3-10.3-10.3c-5.7,0-10.3,4.6-10.3,10.3
	c-0.1,5.6,4.4,10.3,10.1,10.3C119.7,87.3,119.7,87.3,119.8,87.3z"/>
</svg>
