<svg id="Layer_1" data-name="Layer 1" xmlns="http://www.w3.org/2000/svg" viewBox="0 0 300 90"><defs><style>.cls-1{fill:#fff;}</style></defs><title>CVL_Web_Logo</title><path class="cls-1" d="M77.52,19c0,1.3,5.28-4.57,11.94.14,7.34,5.2,1.65,17.53,3.17,18,2.88.86,12.73-13.86,2-22.22C87.16,9,77.52,16.24,77.52,19Z"/><path class="cls-1" d="M100.83,28.47c.71,1.8,16.4,1.72,16.26,13.67-.29,24-45.52,32.52-47.35,35.82-2.72,4.89,47.78-8.34,54-29.82,2.43-8.37.85-16.5-6.74-20.89C110.24,23.34,99.71,25.63,100.83,28.47Z"/><path class="cls-1" d="M13.72,42.92c0-8.17,6.18-13.75,14.15-13.75A12.17,12.17,0,0,1,39,35.67l-4.86,2.39a7.2,7.2,0,0,0-6.26-3.87c-4.82,0-8.33,3.71-8.33,8.73s3.51,8.73,8.33,8.73a7.13,7.13,0,0,0,6.26-3.87L39,50.14a12.24,12.24,0,0,1-11.12,6.54C19.9,56.67,13.72,51.09,13.72,42.92Z"/><path class="cls-1" d="M49.67,56.19,39.39,29.61h6.46l7.37,20.45,7.33-20.45H67L56.77,56.19Z"/><path class="cls-1" d="M69.48,56.19V29.61h5.66V51.21H86.38v5Z"/><path class="cls-1" d="M149.5,36.12a4.91,4.91,0,0,1-.8.92,5.06,5.06,0,0,1-1.09.75,6.23,6.23,0,0,1-1.32.5,6.09,6.09,0,0,1-1.5.18,6.81,6.81,0,0,1-2.64-.5,6.32,6.32,0,0,1-3.5-3.51,7.39,7.39,0,0,1,0-5.36,6.33,6.33,0,0,1,3.5-3.51,6.81,6.81,0,0,1,2.64-.5,6.45,6.45,0,0,1,2.38.47,4.8,4.8,0,0,1,2,1.55l-1.13.85a3.13,3.13,0,0,0-.54-.61,4,4,0,0,0-.78-.54,5,5,0,0,0-.95-.38,3.66,3.66,0,0,0-1-.14,5.17,5.17,0,0,0-2.2.45,5,5,0,0,0-1.65,1.21,5.32,5.32,0,0,0-1,1.75,6.28,6.28,0,0,0,0,4.19,5.31,5.31,0,0,0,1,1.75,5,5,0,0,0,1.65,1.21,5.16,5.16,0,0,0,2.2.45,5.61,5.61,0,0,0,1-.09,4.14,4.14,0,0,0,1-.31,3.69,3.69,0,0,0,.9-.59,4.32,4.32,0,0,0,.78-.93Z"/><path class="cls-1" d="M156.81,33v-.22a1.92,1.92,0,0,0-2.16-2.18,3.72,3.72,0,0,0-2.57,1l-.72-.85a4.75,4.75,0,0,1,3.56-1.22,3.87,3.87,0,0,1,1.18.18,2.67,2.67,0,0,1,1,.55,2.72,2.72,0,0,1,.67.93,3.22,3.22,0,0,1,.25,1.33v3.76q0,.49,0,1t.1.87H157c0-.2-.06-.43-.08-.67s0-.47,0-.7h0A3.22,3.22,0,0,1,155.62,38a3.74,3.74,0,0,1-1.74.37,3.8,3.8,0,0,1-1.08-.15,2.76,2.76,0,0,1-.93-.47,2.37,2.37,0,0,1-.65-.77,2.25,2.25,0,0,1-.24-1.07,2.31,2.31,0,0,1,.53-1.61,3.26,3.26,0,0,1,1.33-.87,6.63,6.63,0,0,1,1.71-.36q.91-.07,1.67-.07Zm-.61,1c-.3,0-.67,0-1.12,0a6.57,6.57,0,0,0-1.3.22,2.86,2.86,0,0,0-1.06.53,1.21,1.21,0,0,0-.44,1,1.4,1.4,0,0,0,.17.71,1.42,1.42,0,0,0,.46.49,2,2,0,0,0,.64.27,3.17,3.17,0,0,0,.71.08,2.71,2.71,0,0,0,1.13-.22,2.29,2.29,0,0,0,1.28-1.45,3.56,3.56,0,0,0,.15-1.05v-.61Z"/><path class="cls-1" d="M160.66,29.71h1.19v1.4h0a3.08,3.08,0,0,1,.68-.74,4.27,4.27,0,0,1,.83-.5,4,4,0,0,1,.89-.29,4.5,4.5,0,0,1,.87-.09,4.77,4.77,0,0,1,1.81.33,4.19,4.19,0,0,1,2.34,2.33,4.84,4.84,0,0,1,0,3.53A4.18,4.18,0,0,1,167,38a4.77,4.77,0,0,1-1.81.33,4.57,4.57,0,0,1-.87-.09,4,4,0,0,1-.89-.29,4.22,4.22,0,0,1-.83-.5,3.09,3.09,0,0,1-.68-.74h0v6.59h-1.19Zm7.69,4.21a3.77,3.77,0,0,0-.23-1.31,3.18,3.18,0,0,0-.64-1.06,3,3,0,0,0-1-.71,3.22,3.22,0,0,0-1.32-.26,3.4,3.4,0,0,0-1.35.26,3.33,3.33,0,0,0-1.06.71,3.22,3.22,0,0,0-.7,1.06,3.55,3.55,0,0,0,0,2.63,3.22,3.22,0,0,0,.7,1.06,3.33,3.33,0,0,0,1.06.71,3.4,3.4,0,0,0,1.35.26,3.22,3.22,0,0,0,1.32-.26,3,3,0,0,0,1-.71,3.17,3.17,0,0,0,.64-1.06A3.76,3.76,0,0,0,168.35,33.93Z"/><path class="cls-1" d="M173.26,26.47a.8.8,0,0,1-.27.62.85.85,0,0,1-1.19,0,.85.85,0,0,1,0-1.24.85.85,0,0,1,1.19,0A.8.8,0,0,1,173.26,26.47ZM173,38.14H171.8V29.71H173Z"/><path class="cls-1" d="M180.13,30.79H177.7v5a2.71,2.71,0,0,0,.09.76A1.08,1.08,0,0,0,178,37a.86.86,0,0,0,.39.23,1.83,1.83,0,0,0,.5.06,2.36,2.36,0,0,0,.63-.09,2.85,2.85,0,0,0,.59-.23l.05,1.1a3.83,3.83,0,0,1-1.6.31,3,3,0,0,1-.71-.09,1.68,1.68,0,0,1-.67-.34,1.88,1.88,0,0,1-.5-.68,2.73,2.73,0,0,1-.2-1.13V30.79h-1.78V29.71h1.78V27.34h1.19v2.38h2.43Z"/><path class="cls-1" d="M187.34,33v-.22a1.92,1.92,0,0,0-2.16-2.18,3.72,3.72,0,0,0-2.57,1l-.72-.85a4.75,4.75,0,0,1,3.56-1.22,3.87,3.87,0,0,1,1.18.18,2.67,2.67,0,0,1,1,.55,2.72,2.72,0,0,1,.67.93,3.22,3.22,0,0,1,.25,1.33v3.76q0,.49,0,1t.1.87h-1.15c0-.2-.06-.43-.08-.67s0-.47,0-.7h0A3.22,3.22,0,0,1,186.14,38a3.74,3.74,0,0,1-1.74.37,3.8,3.8,0,0,1-1.08-.15,2.76,2.76,0,0,1-.93-.47,2.37,2.37,0,0,1-.65-.77,2.25,2.25,0,0,1-.24-1.07,2.31,2.31,0,0,1,.53-1.61,3.26,3.26,0,0,1,1.33-.87,6.63,6.63,0,0,1,1.71-.36Q186,33,186.74,33Zm-.61,1c-.3,0-.67,0-1.12,0a6.57,6.57,0,0,0-1.3.22,2.86,2.86,0,0,0-1.06.53,1.21,1.21,0,0,0-.44,1,1.4,1.4,0,0,0,.17.71,1.42,1.42,0,0,0,.46.49,2,2,0,0,0,.64.27,3.17,3.17,0,0,0,.71.08,2.71,2.71,0,0,0,1.13-.22,2.29,2.29,0,0,0,1.28-1.45,3.56,3.56,0,0,0,.15-1.05v-.61Z"/><path class="cls-1" d="M192.51,38.14h-1.19V24.53h1.19Z"/><path class="cls-1" d="M204.52,36.19h0l4.18-10.8h1.4l-5,12.74h-1.3L199,25.39h1.44Z"/><path class="cls-1" d="M211.3,34.25a3.62,3.62,0,0,0,.31,1.19,3.1,3.1,0,0,0,1.62,1.6,2.91,2.91,0,0,0,1.17.23,3,3,0,0,0,1.65-.44,3.3,3.3,0,0,0,1.05-1l.92.76a4.56,4.56,0,0,1-1.67,1.37,4.65,4.65,0,0,1-2,.41,4.48,4.48,0,0,1-1.74-.33,4.07,4.07,0,0,1-1.38-.93,4.38,4.38,0,0,1-.91-1.4,4.58,4.58,0,0,1-.33-1.76,4.69,4.69,0,0,1,.32-1.76,4.26,4.26,0,0,1,.9-1.4,4.14,4.14,0,0,1,1.35-.93,4.19,4.19,0,0,1,1.67-.33,4.1,4.1,0,0,1,1.71.34,3.78,3.78,0,0,1,1.27.91,3.89,3.89,0,0,1,.78,1.33,4.87,4.87,0,0,1,.27,1.63v.54Zm5.72-1a2.7,2.7,0,0,0-.72-2,2.67,2.67,0,0,0-2-.75,2.87,2.87,0,0,0-1.12.23,3.15,3.15,0,0,0-.95.6,3,3,0,0,0-.65.86,2.23,2.23,0,0,0-.24,1Z"/><path class="cls-1" d="M222,26.47a.8.8,0,0,1-.27.62.85.85,0,0,1-1.19,0,.85.85,0,0,1,0-1.24.85.85,0,0,1,1.19,0A.8.8,0,0,1,222,26.47Zm-.27,11.66h-1.19V29.71h1.19Z"/><path class="cls-1" d="M225.68,29.71c0,.23,0,.45,0,.67s0,.45,0,.67h0a2.79,2.79,0,0,1,.5-.63,3.27,3.27,0,0,1,.68-.5,3.75,3.75,0,0,1,.8-.32,3.12,3.12,0,0,1,.84-.12,3.08,3.08,0,0,1,2.39.86,3.51,3.51,0,0,1,.77,2.44v5.35h-1.19V33.48a4,4,0,0,0-.49-2.15,2,2,0,0,0-1.8-.75l-.5.07a2.18,2.18,0,0,0-.87.4,2.87,2.87,0,0,0-.82,1,3.73,3.73,0,0,0-.36,1.8v4.32h-1.19V31.57q0-.34,0-.86c0-.35,0-.68-.06-1Z"/><path class="cls-1" d="M146.8,56.79l2.86,3h-1.84L146,57.87a6.94,6.94,0,0,1-1.69,1.61,4,4,0,0,1-2.2.58,4.78,4.78,0,0,1-1.52-.24,3.79,3.79,0,0,1-1.28-.71,3.43,3.43,0,0,1-.87-1.14,3.5,3.5,0,0,1-.32-1.54,3.38,3.38,0,0,1,.23-1.28,3.61,3.61,0,0,1,.64-1,5,5,0,0,1,.93-.82,7.68,7.68,0,0,1,1.1-.63,8.37,8.37,0,0,1-1-1.36,3.06,3.06,0,0,1-.46-1.63,3.17,3.17,0,0,1,.24-1.28,2.71,2.71,0,0,1,.67-.95,2.92,2.92,0,0,1,1-.58,3.86,3.86,0,0,1,1.26-.2,3.68,3.68,0,0,1,1.19.19,3,3,0,0,1,1,.55,2.54,2.54,0,0,1,.67.89,2.93,2.93,0,0,1,.24,1.23,2.44,2.44,0,0,1-.25,1.13,3.58,3.58,0,0,1-.66.9,5.15,5.15,0,0,1-.91.72q-.5.31-1,.57l2.93,3,1.75-3h1.46Zm-5-3.31a12.65,12.65,0,0,0-1.07.67,3.31,3.31,0,0,0-.71.67,2.44,2.44,0,0,0-.4.75,2.9,2.9,0,0,0-.13.88,2.25,2.25,0,0,0,.22,1,2.35,2.35,0,0,0,.58.76,2.77,2.77,0,0,0,1.82.68,2.91,2.91,0,0,0,.95-.14,3.27,3.27,0,0,0,.79-.4,4.28,4.28,0,0,0,.69-.59,9.69,9.69,0,0,0,.63-.74Zm2.66-3.94a1.55,1.55,0,0,0-.51-1.21,1.81,1.81,0,0,0-1.25-.46,1.93,1.93,0,0,0-1.36.5,1.76,1.76,0,0,0-.55,1.37,1.69,1.69,0,0,0,.15.67,4,4,0,0,0,.36.66,6,6,0,0,0,.43.57,2.9,2.9,0,0,0,.39.39l.77-.44a4.75,4.75,0,0,0,.76-.51,2.53,2.53,0,0,0,.58-.67A1.65,1.65,0,0,0,144.51,49.53Z"/><path class="cls-1" d="M158,58.55h5.94v1.19h-7.24V47H158Z"/><path class="cls-1" d="M171,54.57v-.22a1.92,1.92,0,0,0-2.16-2.18,3.72,3.72,0,0,0-2.57,1l-.72-.85a4.75,4.75,0,0,1,3.56-1.22,3.9,3.9,0,0,1,1.18.18,2.68,2.68,0,0,1,1,.55,2.72,2.72,0,0,1,.67.93,3.22,3.22,0,0,1,.25,1.33v3.76q0,.49,0,1t.1.87h-1.15c0-.2-.06-.43-.08-.67s0-.47,0-.7h0a3.23,3.23,0,0,1-1.23,1.22A3.75,3.75,0,0,1,168,60,3.84,3.84,0,0,1,167,59.8a2.76,2.76,0,0,1-.93-.47,2.38,2.38,0,0,1-.65-.77,2.25,2.25,0,0,1-.24-1.07,2.31,2.31,0,0,1,.53-1.61A3.24,3.24,0,0,1,167,55a6.55,6.55,0,0,1,1.71-.36q.91-.07,1.67-.07Zm-.61,1q-.45,0-1.12,0a6.43,6.43,0,0,0-1.3.22,2.86,2.86,0,0,0-1.06.53,1.21,1.21,0,0,0-.44,1,1.4,1.4,0,0,0,.17.71,1.42,1.42,0,0,0,.46.49,2,2,0,0,0,.64.27,3.17,3.17,0,0,0,.71.08,2.69,2.69,0,0,0,1.13-.22,2.29,2.29,0,0,0,1.28-1.45,3.57,3.57,0,0,0,.15-1.05v-.61Z"/><path class="cls-1" d="M179.25,53.31a2.2,2.2,0,0,0-.72-.83,1.9,1.9,0,0,0-1.1-.31,2.79,2.79,0,0,0-.62.07,1.91,1.91,0,0,0-.57.22,1.26,1.26,0,0,0-.41.39,1,1,0,0,0-.15.58,1,1,0,0,0,.41.86,4.07,4.07,0,0,0,1.24.47l1.21.29a2.88,2.88,0,0,1,1.47.8,2.08,2.08,0,0,1,.58,1.5,2.3,2.3,0,0,1-1,2,3.15,3.15,0,0,1-1.05.46,5.12,5.12,0,0,1-1.21.14,4.44,4.44,0,0,1-1.81-.37,3.34,3.34,0,0,1-1.43-1.27l1-.7a2.82,2.82,0,0,0,.91.92,2.41,2.41,0,0,0,1.3.34,3.29,3.29,0,0,0,.72-.08,2.14,2.14,0,0,0,.64-.25,1.38,1.38,0,0,0,.45-.44,1.15,1.15,0,0,0,.17-.63,1,1,0,0,0-.47-.91,4.12,4.12,0,0,0-1.13-.44l-1.15-.27-.58-.18a2.77,2.77,0,0,1-.72-.38,2.29,2.29,0,0,1-.6-.66,1.85,1.85,0,0,1-.25-1,2.36,2.36,0,0,1,.26-1.13,2.22,2.22,0,0,1,.7-.79,3.23,3.23,0,0,1,1-.46,4.31,4.31,0,0,1,1.15-.15,3.94,3.94,0,0,1,1.64.34,2.41,2.41,0,0,1,1.17,1.17Z"/><path class="cls-1" d="M183.33,55.85a3.61,3.61,0,0,0,.31,1.19,3.1,3.1,0,0,0,1.62,1.6,2.91,2.91,0,0,0,1.17.23,3,3,0,0,0,1.65-.44,3.3,3.3,0,0,0,1.05-1l.92.76a4.56,4.56,0,0,1-1.67,1.37,4.65,4.65,0,0,1-2,.41,4.46,4.46,0,0,1-1.74-.33,4.05,4.05,0,0,1-1.38-.93,4.37,4.37,0,0,1-.91-1.4,4.57,4.57,0,0,1-.33-1.76,4.69,4.69,0,0,1,.32-1.76,4.28,4.28,0,0,1,.9-1.4,4.13,4.13,0,0,1,1.35-.93,4.19,4.19,0,0,1,1.67-.33,4.11,4.11,0,0,1,1.71.34,3.8,3.8,0,0,1,1.27.91,3.89,3.89,0,0,1,.78,1.33,4.86,4.86,0,0,1,.27,1.63v.54Zm5.72-1a2.7,2.7,0,0,0-.72-2,2.67,2.67,0,0,0-2-.75,2.88,2.88,0,0,0-1.12.22,3.15,3.15,0,0,0-.95.6,3,3,0,0,0-.65.86,2.23,2.23,0,0,0-.24,1Z"/><path class="cls-1" d="M192.55,53.94q0-.56,0-1.13t0-1.49h1.17v1.57h0a2.6,2.6,0,0,1,.36-.66,2.84,2.84,0,0,1,.57-.57,2.76,2.76,0,0,1,.77-.4,3,3,0,0,1,1-.15,3.25,3.25,0,0,1,.88.11L197,52.38a2,2,0,0,0-.68-.09,2.44,2.44,0,0,0-1.17.26,2.58,2.58,0,0,0-.81.67,2.77,2.77,0,0,0-.48.87,2.9,2.9,0,0,0-.15.9v4.75h-1.19Z"/><path class="cls-1" d="M214.33,57.72a4.91,4.91,0,0,1-.8.92,5.06,5.06,0,0,1-1.09.75,6.23,6.23,0,0,1-1.32.5,6.14,6.14,0,0,1-1.5.18,6.81,6.81,0,0,1-2.64-.5,6.33,6.33,0,0,1-3.5-3.51,7.39,7.39,0,0,1,0-5.36,6.32,6.32,0,0,1,3.5-3.51,6.81,6.81,0,0,1,2.64-.5,6.43,6.43,0,0,1,2.38.47,4.8,4.8,0,0,1,2,1.55l-1.13.85a3.16,3.16,0,0,0-.54-.61,3.91,3.91,0,0,0-.78-.54,4.82,4.82,0,0,0-.95-.38,3.63,3.63,0,0,0-1-.14,5.17,5.17,0,0,0-2.2.45,5,5,0,0,0-1.65,1.21,5.31,5.31,0,0,0-1,1.75,6.28,6.28,0,0,0,0,4.19,5.31,5.31,0,0,0,1,1.75,5,5,0,0,0,1.65,1.21,5.17,5.17,0,0,0,2.2.45,5.53,5.53,0,0,0,1-.09,4.14,4.14,0,0,0,1-.31,3.66,3.66,0,0,0,.9-.58,4.34,4.34,0,0,0,.78-.93Z"/><path class="cls-1" d="M216.89,55.85a3.61,3.61,0,0,0,.31,1.19,3.1,3.1,0,0,0,1.62,1.6,2.91,2.91,0,0,0,1.17.23,3,3,0,0,0,1.65-.44,3.3,3.3,0,0,0,1.05-1l.92.76a4.56,4.56,0,0,1-1.67,1.37,4.65,4.65,0,0,1-2,.41,4.46,4.46,0,0,1-1.74-.33,4.05,4.05,0,0,1-1.38-.93,4.37,4.37,0,0,1-.91-1.4,4.57,4.57,0,0,1-.33-1.76,4.69,4.69,0,0,1,.32-1.76,4.28,4.28,0,0,1,.9-1.4,4.13,4.13,0,0,1,1.35-.93,4.19,4.19,0,0,1,1.67-.33,4.11,4.11,0,0,1,1.71.34,3.8,3.8,0,0,1,1.27.91,3.89,3.89,0,0,1,.78,1.33,4.86,4.86,0,0,1,.27,1.63v.54Zm5.72-1a2.7,2.7,0,0,0-.72-2,2.67,2.67,0,0,0-2-.75,2.88,2.88,0,0,0-1.12.22,3.15,3.15,0,0,0-.95.6,3,3,0,0,0-.65.86,2.23,2.23,0,0,0-.24,1Z"/><path class="cls-1" d="M227.19,51.31q0,.34,0,.67c0,.22,0,.45,0,.67h0a2.79,2.79,0,0,1,.5-.63,3.34,3.34,0,0,1,.68-.5,3.75,3.75,0,0,1,.8-.32,3.12,3.12,0,0,1,.84-.12,3.08,3.08,0,0,1,2.39.85,3.51,3.51,0,0,1,.77,2.44v5.35h-1.19V55.08a4,4,0,0,0-.49-2.15,2,2,0,0,0-1.8-.75l-.5.07a2.19,2.19,0,0,0-.87.4,2.87,2.87,0,0,0-.82,1,3.74,3.74,0,0,0-.36,1.8v4.32h-1.19V53.17q0-.34,0-.86c0-.35,0-.68-.06-1Z"/><path class="cls-1" d="M240.22,52.39h-2.43v5a2.72,2.72,0,0,0,.09.77,1.09,1.09,0,0,0,.25.46.87.87,0,0,0,.39.22,1.83,1.83,0,0,0,.5.06,2.33,2.33,0,0,0,.63-.09,2.9,2.9,0,0,0,.59-.23l.05,1.1a3.81,3.81,0,0,1-1.6.31,3,3,0,0,1-.71-.09,1.66,1.66,0,0,1-.67-.34,1.88,1.88,0,0,1-.5-.68,2.73,2.73,0,0,1-.2-1.13V52.39h-1.78V51.31h1.78V48.94h1.19v2.38h2.43Z"/><path class="cls-1" d="M242.47,55.85a3.61,3.61,0,0,0,.31,1.19,3.1,3.1,0,0,0,1.62,1.6,2.91,2.91,0,0,0,1.17.23,3,3,0,0,0,1.65-.44,3.3,3.3,0,0,0,1.05-1l.92.76a4.56,4.56,0,0,1-1.67,1.37,4.65,4.65,0,0,1-2,.41,4.46,4.46,0,0,1-1.74-.33,4.05,4.05,0,0,1-1.38-.93,4.37,4.37,0,0,1-.91-1.4,4.57,4.57,0,0,1-.33-1.76,4.69,4.69,0,0,1,.32-1.76,4.28,4.28,0,0,1,.9-1.4,4.13,4.13,0,0,1,1.35-.93,4.19,4.19,0,0,1,1.67-.33,4.11,4.11,0,0,1,1.71.34,3.8,3.8,0,0,1,1.27.91,3.89,3.89,0,0,1,.78,1.33,4.86,4.86,0,0,1,.27,1.63v.54Zm5.72-1a2.7,2.7,0,0,0-.72-2,2.67,2.67,0,0,0-2-.75,2.88,2.88,0,0,0-1.12.22,3.15,3.15,0,0,0-.95.6,3,3,0,0,0-.65.86,2.23,2.23,0,0,0-.24,1Z"/><path class="cls-1" d="M251.69,53.94q0-.56,0-1.13t0-1.49h1.17v1.57h0a2.6,2.6,0,0,1,.36-.66,2.84,2.84,0,0,1,.57-.57,2.76,2.76,0,0,1,.77-.4,3,3,0,0,1,1-.15,3.25,3.25,0,0,1,.88.11l-.23,1.17a2,2,0,0,0-.68-.09,2.44,2.44,0,0,0-1.17.26,2.58,2.58,0,0,0-.81.67,2.77,2.77,0,0,0-.48.87,2.9,2.9,0,0,0-.15.9v4.75h-1.19Z"/><path class="cls-1" d="M262.28,53.31a2.2,2.2,0,0,0-.72-.83,1.9,1.9,0,0,0-1.1-.31,2.79,2.79,0,0,0-.62.07,1.91,1.91,0,0,0-.57.22,1.26,1.26,0,0,0-.41.39,1,1,0,0,0-.15.58,1,1,0,0,0,.41.86,4.07,4.07,0,0,0,1.24.47l1.21.29a2.88,2.88,0,0,1,1.47.8,2.08,2.08,0,0,1,.58,1.5,2.3,2.3,0,0,1-1,2,3.15,3.15,0,0,1-1.05.46,5.12,5.12,0,0,1-1.21.14,4.44,4.44,0,0,1-1.81-.37,3.34,3.34,0,0,1-1.43-1.27l1-.7a2.82,2.82,0,0,0,.91.92,2.41,2.41,0,0,0,1.3.34,3.29,3.29,0,0,0,.72-.08,2.14,2.14,0,0,0,.64-.25,1.38,1.38,0,0,0,.45-.44,1.15,1.15,0,0,0,.17-.63,1,1,0,0,0-.47-.91,4.12,4.12,0,0,0-1.13-.44l-1.15-.27-.58-.18a2.77,2.77,0,0,1-.72-.38,2.29,2.29,0,0,1-.6-.66,1.85,1.85,0,0,1-.25-1,2.36,2.36,0,0,1,.26-1.13,2.22,2.22,0,0,1,.7-.79,3.23,3.23,0,0,1,1-.46,4.31,4.31,0,0,1,1.15-.15,3.94,3.94,0,0,1,1.64.34,2.41,2.41,0,0,1,1.17,1.17Z"/></svg>