<svg id="Layer_1" data-name="Layer 1" xmlns="http://www.w3.org/2000/svg" viewBox="0 0 249.91 66.32"><defs><style>.cls-1{fill:#fff;}</style></defs><title>CVL_Web_Logo_Revised</title><path class="cls-1" d="M77,20.15c0,1.3,5.28-4.57,11.94.15,7.34,5.19,1.66,17.53,3.17,18,2.88.86,12.73-13.87,2-22.23C86.62,10.23,77,17.42,77,20.15Z" transform="translate(-13.18 -13.84)"/><path class="cls-1" d="M100.29,29.65c.71,1.79,16.4,1.72,16.26,13.66-.29,24-45.52,32.52-47.35,35.83C66.48,84,117,70.79,123.2,49.31c2.43-8.37.85-16.5-6.74-20.89C109.71,24.52,99.17,26.81,100.29,29.65Z" transform="translate(-13.18 -13.84)"/><path class="cls-1" d="M13.18,44.1c0-8.17,6.18-13.76,14.16-13.76a12.17,12.17,0,0,1,11.12,6.5l-4.87,2.39a7.18,7.18,0,0,0-6.25-3.86c-4.83,0-8.33,3.7-8.33,8.73s3.5,8.73,8.33,8.73A7.12,7.12,0,0,0,33.59,49l4.87,2.35a12.24,12.24,0,0,1-11.12,6.54C19.36,57.85,13.18,52.27,13.18,44.1Z" transform="translate(-13.18 -13.84)"/><path class="cls-1" d="M49.14,57.37,38.85,30.78h6.46l7.37,20.45L60,30.78h6.46L56.23,57.37Z" transform="translate(-13.18 -13.84)"/><path class="cls-1" d="M68.94,57.37V30.78H74.6V52.39H85.85v5Z" transform="translate(-13.18 -13.84)"/><path class="cls-1" d="M149,37.3a5.22,5.22,0,0,1-.8.92,5,5,0,0,1-1.09.74,6.32,6.32,0,0,1-1.32.5,6.18,6.18,0,0,1-1.51.18,6.92,6.92,0,0,1-2.63-.5,6.54,6.54,0,0,1-2.11-1.4,6.36,6.36,0,0,1-1.39-2.11,7.32,7.32,0,0,1,0-5.37,6.33,6.33,0,0,1,3.5-3.51,6.92,6.92,0,0,1,2.63-.5,6.27,6.27,0,0,1,2.38.47,4.73,4.73,0,0,1,2,1.54l-1.13.85a3,3,0,0,0-.54-.61,3.61,3.61,0,0,0-.78-.54,5,5,0,0,0-.95-.38,3.47,3.47,0,0,0-1-.14,5.17,5.17,0,0,0-2.19.45,5,5,0,0,0-1.65,1.2,5.34,5.34,0,0,0-1,1.76,6.28,6.28,0,0,0,0,4.19,5.34,5.34,0,0,0,1,1.76,5,5,0,0,0,1.65,1.2,5.17,5.17,0,0,0,2.19.45,5.55,5.55,0,0,0,1-.09,4.19,4.19,0,0,0,1-.3,3.68,3.68,0,0,0,.9-.59,4.08,4.08,0,0,0,.79-.93Z" transform="translate(-13.18 -13.84)"/><path class="cls-1" d="M156.28,34.15v-.22a1.91,1.91,0,0,0-2.16-2.17,3.72,3.72,0,0,0-2.58,1l-.72-.85a4.74,4.74,0,0,1,3.57-1.22,3.93,3.93,0,0,1,1.18.18,2.84,2.84,0,0,1,1,.54,2.9,2.9,0,0,1,.66.93,3.19,3.19,0,0,1,.25,1.33v3.77c0,.32,0,.66,0,1s.06.65.1.88h-1.15a4.55,4.55,0,0,1-.08-.67c0-.24,0-.47,0-.7h0a3.23,3.23,0,0,1-1.23,1.21,3.7,3.7,0,0,1-1.74.37,3.91,3.91,0,0,1-1.08-.15,2.67,2.67,0,0,1-.92-.47,2.41,2.41,0,0,1-.65-.77,2.31,2.31,0,0,1-.25-1.07,2.34,2.34,0,0,1,.53-1.62,3.25,3.25,0,0,1,1.34-.87,6.66,6.66,0,0,1,1.71-.36c.6,0,1.16-.07,1.66-.07Zm-.62,1c-.3,0-.67,0-1.12.05a6.92,6.92,0,0,0-1.3.21,2.93,2.93,0,0,0-1.06.53,1.22,1.22,0,0,0-.44,1,1.41,1.41,0,0,0,.17.71,1.54,1.54,0,0,0,.46.49,1.82,1.82,0,0,0,.64.27,3.36,3.36,0,0,0,.71.08,2.73,2.73,0,0,0,1.12-.21,2.42,2.42,0,0,0,.81-.59,2.32,2.32,0,0,0,.47-.86,3.62,3.62,0,0,0,.16-1.06v-.61Z" transform="translate(-13.18 -13.84)"/><path class="cls-1" d="M160.12,30.89h1.19V32.3h0a3,3,0,0,1,.68-.74,4.52,4.52,0,0,1,.83-.51,4.17,4.17,0,0,1,.89-.28,4.59,4.59,0,0,1,.87-.09,4.78,4.78,0,0,1,1.81.33,4.15,4.15,0,0,1,2.34,2.33,4.75,4.75,0,0,1,0,3.53,4.15,4.15,0,0,1-2.34,2.33,4.78,4.78,0,0,1-1.81.33,4.59,4.59,0,0,1-.87-.09,3.7,3.7,0,0,1-.89-.29,4.47,4.47,0,0,1-.83-.5,3,3,0,0,1-.68-.74h0V44.5h-1.19Zm7.69,4.21a3.79,3.79,0,0,0-.22-1.31,3.41,3.41,0,0,0-.64-1.06,3,3,0,0,0-1-.71,3.13,3.13,0,0,0-1.33-.26,3.34,3.34,0,0,0-2.41,1,3.21,3.21,0,0,0-.7,1.06,3.58,3.58,0,0,0,0,2.63,3.21,3.21,0,0,0,.7,1.06,3.34,3.34,0,0,0,2.41,1,3.13,3.13,0,0,0,1.33-.26,3,3,0,0,0,1-.71,3.41,3.41,0,0,0,.64-1.06A3.81,3.81,0,0,0,167.81,35.1Z" transform="translate(-13.18 -13.84)"/><path class="cls-1" d="M172.72,27.65a.8.8,0,0,1-.27.62.83.83,0,0,1-1.19,0,.85.85,0,0,1,0-1.24.86.86,0,0,1,1.19,0A.8.8,0,0,1,172.72,27.65Zm-.27,11.67h-1.19V30.89h1.19Z" transform="translate(-13.18 -13.84)"/><path class="cls-1" d="M179.59,32h-2.43v5a2.63,2.63,0,0,0,.09.76,1,1,0,0,0,.25.46.86.86,0,0,0,.39.23,1.88,1.88,0,0,0,.49.06,2.28,2.28,0,0,0,.63-.09,3.26,3.26,0,0,0,.6-.23l0,1.1a3.87,3.87,0,0,1-1.6.3,2.94,2.94,0,0,1-.71-.09,1.68,1.68,0,0,1-.68-.34,2,2,0,0,1-.5-.68,2.81,2.81,0,0,1-.2-1.14V32h-1.78V30.89H176V28.52h1.19v2.37h2.43Z" transform="translate(-13.18 -13.84)"/><path class="cls-1" d="M189.52,35.1a4.65,4.65,0,0,1-.33,1.77,4.09,4.09,0,0,1-.93,1.4,4.13,4.13,0,0,1-1.41.93,4.82,4.82,0,0,1-1.81.33,4.75,4.75,0,0,1-1.79-.33,4,4,0,0,1-1.41-.93,4.09,4.09,0,0,1-.93-1.4,4.89,4.89,0,0,1,0-3.53,4.09,4.09,0,0,1,.93-1.4,4,4,0,0,1,1.41-.93,4.75,4.75,0,0,1,1.79-.33,4.82,4.82,0,0,1,1.81.33,4.13,4.13,0,0,1,1.41.93,4.09,4.09,0,0,1,.93,1.4A4.63,4.63,0,0,1,189.52,35.1Zm-1.29,0a3.8,3.8,0,0,0-.23-1.31,3.07,3.07,0,0,0-.64-1.06,2.89,2.89,0,0,0-1-.71,3.48,3.48,0,0,0-2.64,0,2.85,2.85,0,0,0-1,.71,3.21,3.21,0,0,0-.63,1.06,3.87,3.87,0,0,0,0,2.63,3.21,3.21,0,0,0,.63,1.06,2.85,2.85,0,0,0,1,.71,3.48,3.48,0,0,0,2.64,0,2.89,2.89,0,0,0,1-.71,3.07,3.07,0,0,0,.64-1.06A3.81,3.81,0,0,0,188.23,35.1Z" transform="translate(-13.18 -13.84)"/><path class="cls-1" d="M193,39.32h-1.18V25.71H193Z" transform="translate(-13.18 -13.84)"/><path class="cls-1" d="M205,37.37h0l4.17-10.8h1.41l-5,12.75h-1.3l-4.84-12.75H201Z" transform="translate(-13.18 -13.84)"/><path class="cls-1" d="M211.8,35.43a3.73,3.73,0,0,0,.31,1.19,3.16,3.16,0,0,0,1.62,1.6,3.22,3.22,0,0,0,2.82-.21,3.21,3.21,0,0,0,1-1l.92.76a4.6,4.6,0,0,1-1.67,1.37,4.7,4.7,0,0,1-1.95.41,4.57,4.57,0,0,1-1.74-.33,4,4,0,0,1-1.37-.93,4.18,4.18,0,0,1-.91-1.4,4.47,4.47,0,0,1-.34-1.77,4.63,4.63,0,0,1,.33-1.76A4.2,4.2,0,0,1,213.12,31a4.18,4.18,0,0,1,1.67-.33,4,4,0,0,1,1.71.34,3.72,3.72,0,0,1,1.27.91,3.83,3.83,0,0,1,.78,1.33,4.85,4.85,0,0,1,.27,1.63v.54Zm5.73-1a2.71,2.71,0,0,0-.72-2,2.66,2.66,0,0,0-2-.74,2.85,2.85,0,0,0-1.11.22,3.2,3.2,0,0,0-1,.6,3.25,3.25,0,0,0-.65.87,2.24,2.24,0,0,0-.24,1Z" transform="translate(-13.18 -13.84)"/><path class="cls-1" d="M222.54,27.65a.8.8,0,0,1-.27.62.82.82,0,0,1-1.18,0,.85.85,0,0,1,0-1.24.85.85,0,0,1,1.18,0A.8.8,0,0,1,222.54,27.65Zm-.27,11.67h-1.18V30.89h1.18Z" transform="translate(-13.18 -13.84)"/><path class="cls-1" d="M226.18,30.89c0,.23,0,.45,0,.68s0,.44,0,.67h0a2.72,2.72,0,0,1,.5-.63,3.08,3.08,0,0,1,.69-.49,3.54,3.54,0,0,1,.8-.33,3,3,0,0,1,.83-.11,3.09,3.09,0,0,1,2.4.85,3.53,3.53,0,0,1,.77,2.44v5.35h-1.19V34.65a4,4,0,0,0-.48-2.15,2,2,0,0,0-1.8-.74,4,4,0,0,0-.51.07,2.35,2.35,0,0,0-.87.39,2.93,2.93,0,0,0-.82,1,3.73,3.73,0,0,0-.36,1.8v4.32H225V32.75c0-.23,0-.52,0-.87s0-.68-.07-1Z" transform="translate(-13.18 -13.84)"/><path class="cls-1" d="M146.26,58l2.86,3h-1.83L145.49,59a6.9,6.9,0,0,1-1.7,1.61,3.93,3.93,0,0,1-2.19.59,4.79,4.79,0,0,1-1.52-.24,3.88,3.88,0,0,1-1.28-.71,3.4,3.4,0,0,1-.87-1.15,3.45,3.45,0,0,1-.33-1.54,3.27,3.27,0,0,1,.24-1.27,3.45,3.45,0,0,1,.63-1,4.88,4.88,0,0,1,.93-.82,8,8,0,0,1,1.1-.63,8.88,8.88,0,0,1-1-1.36,3.08,3.08,0,0,1-.45-1.63,3.16,3.16,0,0,1,.24-1.27,2.72,2.72,0,0,1,.67-.95,2.9,2.9,0,0,1,1-.58,3.7,3.7,0,0,1,1.26-.2,3.58,3.58,0,0,1,1.19.19,2.86,2.86,0,0,1,1,.55,2.61,2.61,0,0,1,.67.89,2.93,2.93,0,0,1,.24,1.23,2.4,2.4,0,0,1-.25,1.12,3.6,3.6,0,0,1-.66.9,5,5,0,0,1-.91.72q-.49.31-1,.57l2.94,3,1.74-3h1.46Zm-4.95-3.31a12,12,0,0,0-1.07.68,3.26,3.26,0,0,0-.71.66,2.73,2.73,0,0,0-.4.75,3,3,0,0,0-.12.88,2.31,2.31,0,0,0,.21,1,2.48,2.48,0,0,0,.58.77,2.64,2.64,0,0,0,.83.49,2.72,2.72,0,0,0,1,.18,3.09,3.09,0,0,0,.94-.14,3.26,3.26,0,0,0,.79-.4,4.3,4.3,0,0,0,.7-.59c.21-.23.42-.48.63-.74ZM144,50.71a1.58,1.58,0,0,0-.51-1.22,1.83,1.83,0,0,0-1.25-.45,1.92,1.92,0,0,0-1.36.5,1.76,1.76,0,0,0-.55,1.37,1.7,1.7,0,0,0,.15.67,5.14,5.14,0,0,0,.36.66c.14.2.29.39.44.57a3.34,3.34,0,0,0,.38.38l.78-.44a5,5,0,0,0,.76-.51,2.32,2.32,0,0,0,.58-.67A1.64,1.64,0,0,0,144,50.71Z" transform="translate(-13.18 -13.84)"/><path class="cls-1" d="M157.44,59.73h5.94v1.19h-7.24V48.17h1.3Z" transform="translate(-13.18 -13.84)"/><path class="cls-1" d="M170.44,55.75v-.22a1.91,1.91,0,0,0-2.16-2.17,3.72,3.72,0,0,0-2.58,1L165,53.5a4.74,4.74,0,0,1,3.57-1.22,3.82,3.82,0,0,1,1.17.18,2.79,2.79,0,0,1,1,.54,2.9,2.9,0,0,1,.66.93,3.19,3.19,0,0,1,.25,1.33V59c0,.32,0,.66,0,1s.06.65.1.88h-1.15a6.39,6.39,0,0,1-.09-.67c0-.24,0-.47,0-.7h0a3.23,3.23,0,0,1-1.23,1.21,3.7,3.7,0,0,1-1.74.37,3.91,3.91,0,0,1-1.08-.15,2.72,2.72,0,0,1-.93-.47,2.38,2.38,0,0,1-.64-.77,2.2,2.2,0,0,1-.25-1.07,2.36,2.36,0,0,1,.53-1.62,3.25,3.25,0,0,1,1.34-.87,6.66,6.66,0,0,1,1.71-.36c.6,0,1.16-.07,1.66-.07Zm-.62,1c-.3,0-.67,0-1.12.05a6.92,6.92,0,0,0-1.3.21,2.93,2.93,0,0,0-1.06.53,1.22,1.22,0,0,0-.44,1,1.41,1.41,0,0,0,.17.71,1.44,1.44,0,0,0,.46.49,1.74,1.74,0,0,0,.64.27,3.36,3.36,0,0,0,.71.08,2.73,2.73,0,0,0,1.12-.21,2.27,2.27,0,0,0,1.28-1.45,3.62,3.62,0,0,0,.16-1.06v-.61Z" transform="translate(-13.18 -13.84)"/><path class="cls-1" d="M178.71,54.49a2.24,2.24,0,0,0-.72-.83,1.92,1.92,0,0,0-1.1-.3,2.68,2.68,0,0,0-.62.07,1.87,1.87,0,0,0-.56.22,1.18,1.18,0,0,0-.41.39,1.06,1.06,0,0,0-.15.58,1,1,0,0,0,.41.86,4.07,4.07,0,0,0,1.24.47l1.21.29a2.8,2.8,0,0,1,1.47.8,2.06,2.06,0,0,1,.58,1.5,2.3,2.3,0,0,1-1,2,3.13,3.13,0,0,1-1,.46,5.46,5.46,0,0,1-1.2.14,4.34,4.34,0,0,1-1.81-.37,3.26,3.26,0,0,1-1.43-1.27l1-.7a2.76,2.76,0,0,0,.91.92,2.41,2.41,0,0,0,1.31.34,3.61,3.61,0,0,0,.72-.08,2,2,0,0,0,.63-.25,1.35,1.35,0,0,0,.45-.44,1.11,1.11,0,0,0,.18-.63,1,1,0,0,0-.47-.91,4,4,0,0,0-1.14-.44L176,57l-.58-.18a2.77,2.77,0,0,1-.72-.38,2.28,2.28,0,0,1-.61-.66,1.83,1.83,0,0,1-.25-1,2.39,2.39,0,0,1,.26-1.13,2.32,2.32,0,0,1,.7-.79,3.15,3.15,0,0,1,1-.46,4.45,4.45,0,0,1,1.16-.15,3.87,3.87,0,0,1,1.63.34,2.38,2.38,0,0,1,1.17,1.17Z" transform="translate(-13.18 -13.84)"/><path class="cls-1" d="M182.8,57a3.48,3.48,0,0,0,.3,1.19,3.13,3.13,0,0,0,.67,1,3.24,3.24,0,0,0,.95.64,3,3,0,0,0,1.17.23,3,3,0,0,0,1.65-.44,3.21,3.21,0,0,0,1.05-1l.92.76a4.58,4.58,0,0,1-1.66,1.37,4.78,4.78,0,0,1-2,.41,4.48,4.48,0,0,1-1.73-.33,3.91,3.91,0,0,1-1.38-.93,4.18,4.18,0,0,1-.91-1.4,5,5,0,0,1,0-3.53,4.32,4.32,0,0,1,.9-1.4,4,4,0,0,1,1.35-.93,4.23,4.23,0,0,1,1.68-.33,4.11,4.11,0,0,1,1.71.34,3.78,3.78,0,0,1,1.26.91,3.7,3.7,0,0,1,.79,1.33,4.85,4.85,0,0,1,.27,1.63V57Zm5.72-1a2.71,2.71,0,0,0-.72-2,2.65,2.65,0,0,0-2-.74,2.87,2.87,0,0,0-1.12.22,3.2,3.2,0,0,0-.95.6,3,3,0,0,0-.64.87,2.13,2.13,0,0,0-.25,1Z" transform="translate(-13.18 -13.84)"/><path class="cls-1" d="M192,55.12c0-.37,0-.75,0-1.13s0-.89-.05-1.5h1.17v1.57h0a2.37,2.37,0,0,1,.36-.66,2.8,2.8,0,0,1,.57-.57,3,3,0,0,1,.77-.4,3.09,3.09,0,0,1,1-.15,3.33,3.33,0,0,1,.88.1l-.23,1.17a2.05,2.05,0,0,0-.69-.09,2.52,2.52,0,0,0-1.17.26,2.79,2.79,0,0,0-.81.67,2.84,2.84,0,0,0-.47.87,2.76,2.76,0,0,0-.16.9v4.76H192Z" transform="translate(-13.18 -13.84)"/><path class="cls-1" d="M213.8,58.9a5.29,5.29,0,0,1-.81.92,4.91,4.91,0,0,1-1.08.74,6.2,6.2,0,0,1-1.33.5,6,6,0,0,1-1.5.18,6.93,6.93,0,0,1-2.64-.5,6.49,6.49,0,0,1-2.1-1.4,6.38,6.38,0,0,1-1.4-2.11,7.46,7.46,0,0,1,0-5.37,6.41,6.41,0,0,1,3.5-3.51,6.93,6.93,0,0,1,2.64-.5,6.34,6.34,0,0,1,2.38.47,4.73,4.73,0,0,1,2,1.54l-1.13.85a3.7,3.7,0,0,0-.54-.61,3.44,3.44,0,0,0-.79-.54,4.87,4.87,0,0,0-.94-.38,3.52,3.52,0,0,0-1-.14,5.18,5.18,0,0,0-2.2.45,5.08,5.08,0,0,0-1.64,1.2,5.36,5.36,0,0,0-1,1.76,6.28,6.28,0,0,0,0,4.19,5.36,5.36,0,0,0,1,1.76,5.08,5.08,0,0,0,1.64,1.2,5.18,5.18,0,0,0,2.2.45,5.55,5.55,0,0,0,1-.09,4.34,4.34,0,0,0,1-.3,3.68,3.68,0,0,0,.9-.59,4.31,4.31,0,0,0,.78-.93Z" transform="translate(-13.18 -13.84)"/><path class="cls-1" d="M216.35,57a4,4,0,0,0,.3,1.19,3.13,3.13,0,0,0,.67,1,3.38,3.38,0,0,0,1,.64,3.05,3.05,0,0,0,1.17.23,3,3,0,0,0,1.65-.44,3.21,3.21,0,0,0,1-1l.92.76a4.58,4.58,0,0,1-1.66,1.37,4.78,4.78,0,0,1-2,.41,4.48,4.48,0,0,1-1.73-.33,4,4,0,0,1-1.38-.93,4.34,4.34,0,0,1-.91-1.4,4.65,4.65,0,0,1-.33-1.77,4.83,4.83,0,0,1,.32-1.76,4.32,4.32,0,0,1,.9-1.4,4.18,4.18,0,0,1,1.35-.93,4.27,4.27,0,0,1,1.68-.33,4.11,4.11,0,0,1,1.71.34,3.93,3.93,0,0,1,1.27.91,3.83,3.83,0,0,1,.78,1.33,4.85,4.85,0,0,1,.27,1.63V57Zm5.72-1a2.71,2.71,0,0,0-.72-2,2.65,2.65,0,0,0-2-.74,2.87,2.87,0,0,0-1.12.22,3.15,3.15,0,0,0-.94.6,3,3,0,0,0-.65.87,2.24,2.24,0,0,0-.24,1Z" transform="translate(-13.18 -13.84)"/><path class="cls-1" d="M226.65,52.49c0,.23,0,.46,0,.68s0,.44,0,.67h0a2.72,2.72,0,0,1,.5-.63,3.33,3.33,0,0,1,.69-.49,3.74,3.74,0,0,1,.8-.33,3,3,0,0,1,.83-.11,3.09,3.09,0,0,1,2.4.85,3.53,3.53,0,0,1,.77,2.44v5.35h-1.18V56.25a4,4,0,0,0-.49-2.15,2,2,0,0,0-1.8-.74,3.75,3.75,0,0,0-.5.07,2.32,2.32,0,0,0-.88.39,2.93,2.93,0,0,0-.82,1,3.73,3.73,0,0,0-.36,1.8v4.32h-1.19V54.35c0-.23,0-.52,0-.87s0-.68-.06-1Z" transform="translate(-13.18 -13.84)"/><path class="cls-1" d="M239.69,53.57h-2.43v5a2.63,2.63,0,0,0,.09.76,1,1,0,0,0,.25.46A.86.86,0,0,0,238,60a1.88,1.88,0,0,0,.49.06,2.39,2.39,0,0,0,.63-.09,3.15,3.15,0,0,0,.59-.23l.06,1.1a3.9,3.9,0,0,1-1.6.3,2.94,2.94,0,0,1-.71-.09,1.62,1.62,0,0,1-.68-.34,2,2,0,0,1-.5-.68,2.65,2.65,0,0,1-.2-1.14V53.57h-1.78V52.49h1.78V50.12h1.19v2.37h2.43Z" transform="translate(-13.18 -13.84)"/><path class="cls-1" d="M241.93,57a3.73,3.73,0,0,0,.31,1.19,3.07,3.07,0,0,0,1.62,1.6,3.22,3.22,0,0,0,2.82-.21,3.21,3.21,0,0,0,1-1l.92.76A4.6,4.6,0,0,1,247,60.72a4.73,4.73,0,0,1-1.95.41,4.49,4.49,0,0,1-1.74-.33,4.1,4.1,0,0,1-1.38-.93,4.32,4.32,0,0,1-.9-1.4,4.47,4.47,0,0,1-.34-1.77,4.63,4.63,0,0,1,.33-1.76,4.2,4.2,0,0,1,2.25-2.33,4.18,4.18,0,0,1,1.67-.33,4,4,0,0,1,1.71.34,3.73,3.73,0,0,1,2.05,2.24,4.85,4.85,0,0,1,.27,1.63V57Zm5.73-1a2.71,2.71,0,0,0-.72-2,2.67,2.67,0,0,0-2-.74,2.9,2.9,0,0,0-1.12.22,3.15,3.15,0,0,0-.94.6,3,3,0,0,0-.65.87,2.24,2.24,0,0,0-.24,1Z" transform="translate(-13.18 -13.84)"/><path class="cls-1" d="M251.15,55.12c0-.37,0-.75,0-1.13s0-.89,0-1.5h1.17v1.57h0a3,3,0,0,1,.36-.66,3.08,3.08,0,0,1,.57-.57,3,3,0,0,1,.77-.4,3.13,3.13,0,0,1,1-.15,3.41,3.41,0,0,1,.89.1l-.24,1.17a2,2,0,0,0-.68-.09,2.47,2.47,0,0,0-1.17.26,2.55,2.55,0,0,0-.81.67,2.67,2.67,0,0,0-.48.87,3,3,0,0,0-.15.9v4.76h-1.19Z" transform="translate(-13.18 -13.84)"/><path class="cls-1" d="M261.74,54.49a2.24,2.24,0,0,0-.72-.83,1.91,1.91,0,0,0-1.09-.3,2.7,2.7,0,0,0-.63.07,1.87,1.87,0,0,0-.56.22,1.18,1.18,0,0,0-.41.39,1.06,1.06,0,0,0-.15.58,1,1,0,0,0,.41.86,4.07,4.07,0,0,0,1.24.47l1.21.29a2.8,2.8,0,0,1,1.47.8,2.06,2.06,0,0,1,.58,1.5,2.32,2.32,0,0,1-.28,1.18,2.37,2.37,0,0,1-.73.81A3.28,3.28,0,0,1,261,61a5.39,5.39,0,0,1-1.2.14,4.37,4.37,0,0,1-1.81-.37,3.26,3.26,0,0,1-1.43-1.27l1-.7a2.86,2.86,0,0,0,.91.92,2.41,2.41,0,0,0,1.31.34,3.53,3.53,0,0,0,.72-.08,2.14,2.14,0,0,0,.64-.25,1.57,1.57,0,0,0,.45-.44,1.19,1.19,0,0,0,.17-.63,1,1,0,0,0-.47-.91,4,4,0,0,0-1.14-.44L259,57l-.58-.18a2.77,2.77,0,0,1-.72-.38,2.12,2.12,0,0,1-.6-.66,1.83,1.83,0,0,1-.26-1,2.39,2.39,0,0,1,.26-1.13,2.25,2.25,0,0,1,.71-.79,3,3,0,0,1,1-.46,4.5,4.5,0,0,1,1.16-.15,4,4,0,0,1,1.64.34,2.4,2.4,0,0,1,1.16,1.17Z" transform="translate(-13.18 -13.84)"/></svg>